<?xml version="1.0" encoding="iso-8859-1"?>
<!DOCTYPE svg PUBLIC "-//W3C//DTD SVG 1.1//EN" "http://www.w3.org/Graphics/SVG/1.1/DTD/svg11.dtd">
<svg 
 version="1.1" xmlns="http://www.w3.org/2000/svg" xmlns:xlink="http://www.w3.org/1999/xlink" x="0px" y="0px" width="512px"
	 height="512px" viewBox="0 0 512 512" style="enable-background:new 0 0 512 512;" xml:space="preserve"
><g id="9f7e7d65bebc9157b4431a86ec0d8bf1"><g></g><path style="display: inline;" d="M483.111,141.498v351.076c0,10.409-8.518,18.926-18.927,18.926H104.593
		c-10.409,0-18.926-8.517-18.926-18.926v-79.016h37.852v60.09h321.74V151.907h-86.109c-15.096,0-27.446-12.352-27.446-27.446V38.352
		H123.519v170.333H85.667V19.426c0-10.409,8.517-18.926,18.926-18.926h236.101v0.065c3.017,0.279,6.587,2.24,10.42,6.071
		l125.861,125.861c3.246,3.246,5.153,6.307,5.833,9.001H483.111z M199.085,275.133c-9.448,0-14.172,5.223-14.172,15.67v38.018
		c0,10.446,4.724,15.67,14.172,15.67c9.537,0,14.31-5.224,14.31-15.67v-38.018C213.395,280.355,208.622,275.133,199.085,275.133z
		 M369.556,246.537v129.17c0,10.408-8.517,18.926-18.927,18.926H47.814c-10.409,0-18.926-8.518-18.926-18.926v-129.17
		c0-10.409,8.517-18.926,18.926-18.926h302.814C361.039,227.611,369.556,236.128,369.556,246.537z M139.539,290.803
		c0-10.813-2.909-18.716-8.721-23.713c-5.817-4.994-13.584-7.493-23.302-7.493h-24.12c-2.273,0-4.137,0.546-5.589,1.636
		c-1.453,1.088-2.177,2.36-2.177,3.816v88.708c0,1.456,0.725,2.724,2.177,3.815c1.453,1.09,3.316,1.633,5.589,1.633h24.12
		c9.718,0,17.484-2.494,23.302-7.492c5.812-4.994,8.721-12.896,8.721-23.713V290.803z M231.107,290.803
		c0-10.813-2.909-18.716-8.72-23.713c-5.814-4.994-13.585-7.493-23.303-7.493c-9.722,0-17.466,2.499-23.232,7.493
		c-5.77,4.997-8.653,12.9-8.653,23.713v38.018c0,10.813,2.884,18.715,8.653,23.709c5.767,4.998,13.511,7.496,23.232,7.496
		c9.718,0,17.488-2.498,23.303-7.496c5.811-4.994,8.72-12.896,8.72-23.709V290.803z M276.619,328.82v-38.018
		c0-10.447,4.771-15.67,14.309-15.67c2.454,0,4.587,0.34,6.406,1.021c1.814,0.681,3.179,1.501,4.088,2.454
		c0.905,0.954,1.656,2.133,2.248,3.541c0.587,1.408,0.953,2.543,1.09,3.408s0.248,1.886,0.34,3.064
		c0.089,3.727,3.043,5.586,8.857,5.586c3.179,0,5.452-0.613,6.813-1.842c1.363-1.223,2.044-3.519,2.044-6.879
		c0-7.811-3.021-14.08-9.061-18.804c-6.043-4.724-13.832-7.086-23.368-7.086c-9.36,0-16.945,2.521-22.76,7.563
		c-5.814,5.041-8.72,12.922-8.72,23.643v38.018c0,10.72,2.883,18.601,8.653,23.643c5.767,5.042,13.329,7.563,22.689,7.563
		c9.625,0,17.462-2.453,23.505-7.359c6.04-4.904,9.061-11.447,9.061-19.624c0-3.356-0.702-5.651-2.11-6.88
		c-1.409-1.227-3.704-1.836-6.883-1.836c-5.541,0-8.447,1.862-8.721,5.581c-0.092,1.911-0.295,3.526-0.613,4.843
		c-0.318,1.315-0.909,2.816-1.771,4.494c-0.865,1.682-2.273,2.977-4.226,3.882c-1.955,0.909-4.384,1.364-7.289,1.364
		C281.479,344.49,276.619,339.267,276.619,328.82z M107.517,275.133H93.344v68.54h14.173c9.536,0,14.305-5.224,14.305-15.673
		v-37.197C121.821,280.355,117.053,275.133,107.517,275.133z"></path></g></svg>